<?xml version="1.0" encoding="utf-8"?>
<!-- Generator: Adobe Illustrator 25.2.3, SVG Export Plug-In . SVG Version: 6.00 Build 0)  -->
<svg version="1.1"
	 id="svg74" xmlns:cc="http://creativecommons.org/ns#" xmlns:dc="http://purl.org/dc/elements/1.1/" xmlns:inkscape="http://www.inkscape.org/namespaces/inkscape" xmlns:rdf="http://www.w3.org/1999/02/22-rdf-syntax-ns#" xmlns:sodipodi="http://sodipodi.sourceforge.net/DTD/sodipodi-0.dtd" xmlns:svg="http://www.w3.org/2000/svg"
	 xmlns="http://www.w3.org/2000/svg" xmlns:xlink="http://www.w3.org/1999/xlink" x="0px" y="0px" viewBox="0 0 46.6 47"
	 style="enable-background:new 0 0 46.6 47;" xml:space="preserve">
<style type="text/css">
	.st0{fill:#00ACD1;}
	.st1{fill:#FCC070;}
	.st2{fill:#FFFFFF;}
</style>
<sodipodi:namedview  bordercolor="#666666" borderopacity="1" gridtolerance="10" guidetolerance="10" id="namedview76" inkscape:current-layer="svg74" inkscape:cx="218.36549" inkscape:cy="-75.801493" inkscape:pageopacity="0" inkscape:pageshadow="2" inkscape:window-height="1017" inkscape:window-maximized="1" inkscape:window-width="1920" inkscape:window-x="-8" inkscape:window-y="-8" inkscape:zoom="1.53" objecttolerance="10" pagecolor="#ffffff" showgrid="false">
	</sodipodi:namedview>
<g>
	<path class="st0" d="M43.3,18.5L24.1,1.7c-0.5-0.4-1.2-0.4-1.7,0L3,18.7c-0.2,0.2-0.1,0.5,0.2,0.5h1.6v25.6c0,0.9,0.7,1.6,1.6,1.6
		h11.1V36.1c0-0.3,0.2-0.5,0.5-0.5H28c0.3,0,0.5,0.2,0.5,0.5v10.4h11.1c0.9,0,1.6-0.7,1.6-1.6V19.2H43
		C43.4,19.2,43.5,18.8,43.3,18.5z"/>
	<polygon class="st1" points="36.7,5.4 41.5,8 36.7,10.6 34.1,15.5 31.4,10.6 26.6,8 31.4,5.4 34.1,0.5 	"/>
	<polygon class="st1" points="42,11.7 43.9,12.7 42,13.8 41,15.6 39.9,13.8 38.1,12.7 39.9,11.7 41,9.8 	"/>
	<polygon class="st1" points="6.6,26.4 8.5,27.4 6.6,28.4 5.6,30.3 4.6,28.4 2.7,27.4 4.6,26.4 5.6,24.5 	"/>
	<polygon class="st1" points="37.8,15.5 38.8,16 37.8,16.5 37.3,17.5 36.8,16.5 35.9,16 36.8,15.5 37.3,14.5 	"/>
	<g>
		<path class="st2" d="M21.9,23.5h-2.4c-0.3,0-0.5-0.2-0.5-0.5v-2.4c0-0.3,0.2-0.5,0.5-0.5h2.4c0.3,0,0.5,0.2,0.5,0.5V23
			C22.4,23.3,22.2,23.5,21.9,23.5z"/>
		<path class="st2" d="M26.8,23.5h-2.4c-0.3,0-0.5-0.2-0.5-0.5v-2.4c0-0.3,0.2-0.5,0.5-0.5h2.4c0.3,0,0.5,0.2,0.5,0.5V23
			C27.3,23.3,27.1,23.5,26.8,23.5z"/>
		<path class="st2" d="M21.9,28.5h-2.4c-0.3,0-0.5-0.2-0.5-0.5v-2.4c0-0.3,0.2-0.5,0.5-0.5h2.4c0.3,0,0.5,0.2,0.5,0.5V28
			C22.4,28.3,22.2,28.5,21.9,28.5z"/>
		<path class="st2" d="M26.8,28.5h-2.4c-0.3,0-0.5-0.2-0.5-0.5v-2.4c0-0.3,0.2-0.5,0.5-0.5h2.4c0.3,0,0.5,0.2,0.5,0.5V28
			C27.3,28.3,27.1,28.5,26.8,28.5z"/>
	</g>
</g>
</svg>
