<?xml version="1.0" encoding="utf-8"?>
<!-- Generator: Adobe Illustrator 25.2.3, SVG Export Plug-In . SVG Version: 6.00 Build 0)  -->
<svg version="1.1" id="Layer_1" xmlns="http://www.w3.org/2000/svg" xmlns:xlink="http://www.w3.org/1999/xlink" x="0px" y="0px"
	 viewBox="0 0 225 47" style="enable-background:new 0 0 225 47;" xml:space="preserve">
<style type="text/css">
	.st0{fill:#00ACD1;}
	.st1{fill:#FCC070;}
	.st2{fill:#FFFFFF;}
	.st3{fill:#6B6B6B;}
</style>
<g>
	<path class="st0" d="M37.7,19.2L20.3,4c-0.4-0.4-1.1-0.4-1.5,0L1.3,19.4c-0.2,0.1-0.1,0.4,0.2,0.4h1.5V43c0,0.8,0.7,1.5,1.5,1.5h10
		v-9.4c0-0.3,0.2-0.5,0.5-0.5h8.9c0.3,0,0.5,0.2,0.5,0.5v9.4h10c0.8,0,1.5-0.7,1.5-1.5V19.8h1.6C37.8,19.8,37.9,19.4,37.7,19.2z"/>
	<polygon class="st1" points="31.7,7.3 36.1,9.7 31.7,12 29.3,16.4 27,12 22.6,9.7 27,7.3 29.3,2.9 	"/>
	<polygon class="st1" points="36.5,13 38.2,13.9 36.5,14.9 35.6,16.6 34.7,14.9 33,13.9 34.7,13 35.6,11.3 	"/>
	<polygon class="st1" points="4.5,26.3 6.2,27.2 4.5,28.1 3.6,29.8 2.7,28.1 1,27.2 2.7,26.3 3.6,24.6 	"/>
	<polygon class="st1" points="32.8,16.4 33.6,16.9 32.8,17.4 32.3,18.2 31.8,17.4 31,16.9 31.8,16.4 32.3,15.6 	"/>
	<g>
		<path class="st2" d="M18.3,23.7h-2c-0.3,0-0.5-0.2-0.5-0.5v-2c0-0.3,0.2-0.5,0.5-0.5h2c0.3,0,0.5,0.2,0.5,0.5v2
			C18.8,23.5,18.6,23.7,18.3,23.7z"/>
		<path class="st2" d="M22.7,23.7h-2c-0.3,0-0.5-0.2-0.5-0.5v-2c0-0.3,0.2-0.5,0.5-0.5h2c0.3,0,0.5,0.2,0.5,0.5v2
			C23.2,23.5,23,23.7,22.7,23.7z"/>
		<path class="st2" d="M18.3,28.2h-2c-0.3,0-0.5-0.2-0.5-0.5v-2c0-0.3,0.2-0.5,0.5-0.5h2c0.3,0,0.5,0.2,0.5,0.5v2
			C18.8,28,18.6,28.2,18.3,28.2z"/>
		<path class="st2" d="M22.7,28.2h-2c-0.3,0-0.5-0.2-0.5-0.5v-2c0-0.3,0.2-0.5,0.5-0.5h2c0.3,0,0.5,0.2,0.5,0.5v2
			C23.2,28,23,28.2,22.7,28.2z"/>
	</g>
</g>
<g>
	<g>
		<path class="st3" d="M50.9,38.6c-1.7,0-3.3-0.2-4.8-0.6c-1.5-0.4-2.8-1-3.9-1.8c-0.4-0.3-0.6-0.6-0.7-0.9c-0.1-0.4,0-0.7,0.1-1
			c0.2-0.3,0.4-0.5,0.7-0.6c0.3-0.1,0.7,0,1.1,0.2c1.1,0.8,2.2,1.3,3.4,1.7c1.2,0.3,2.6,0.5,4.1,0.5c2.1,0,3.7-0.4,4.7-1.2
			c1-0.8,1.5-1.8,1.5-3.1c0-1-0.4-1.9-1.1-2.5c-0.7-0.6-2-1.1-3.7-1.4l-3.7-0.7c-2.2-0.5-3.9-1.2-5-2.3c-1.1-1.1-1.6-2.5-1.6-4.3
			c0-1.5,0.4-2.8,1.1-3.9c0.8-1.1,1.8-2,3.2-2.6c1.4-0.6,2.9-0.9,4.7-0.9c1.5,0,2.9,0.2,4.1,0.6c1.3,0.4,2.4,1,3.5,1.9
			c0.3,0.3,0.5,0.6,0.6,0.9c0.1,0.3,0,0.7-0.2,0.9c-0.2,0.3-0.4,0.5-0.7,0.5c-0.3,0.1-0.7,0-1.1-0.3c-0.9-0.7-1.9-1.2-2.9-1.6
			c-1-0.3-2.1-0.5-3.3-0.5c-1.9,0-3.3,0.4-4.4,1.3c-1.1,0.9-1.7,2-1.7,3.4c0,1.1,0.3,2,1,2.7c0.7,0.7,1.8,1.1,3.4,1.4l3.7,0.8
			c2.4,0.5,4.1,1.2,5.3,2.2c1.1,1,1.7,2.4,1.7,4.1c0,1.4-0.4,2.6-1.1,3.7c-0.7,1.1-1.8,1.9-3.2,2.5C54.4,38.3,52.7,38.6,50.9,38.6z"
			/>
		<path class="st3" d="M65.5,38.5c-0.9,0-1.4-0.5-1.4-1.5V14.6c0-1,0.5-1.4,1.4-1.4c1,0,1.4,0.5,1.4,1.4v9.3c0.6-1,1.4-1.8,2.4-2.3
			c1-0.5,2.2-0.8,3.4-0.8c4.1,0,6.1,2.3,6.1,6.8V37c0,1-0.5,1.5-1.4,1.5c-1,0-1.4-0.5-1.4-1.5v-9.3c0-1.6-0.3-2.8-0.9-3.5
			c-0.6-0.7-1.6-1.1-3-1.1c-1.6,0-2.8,0.5-3.8,1.5c-0.9,1-1.4,2.3-1.4,3.9V37C67,38,66.5,38.5,65.5,38.5z"/>
		<path class="st3" d="M85.5,38.4c-0.9,0-1.4-0.5-1.4-1.6V22.5c0-1,0.5-1.5,1.4-1.5c1,0,1.4,0.5,1.4,1.5v14.4
			C87,37.9,86.5,38.4,85.5,38.4z"/>
		<path class="st3" d="M93.7,38.5c-0.9,0-1.4-0.5-1.4-1.5V22.3c0-1,0.5-1.4,1.4-1.4c0.9,0,1.4,0.5,1.4,1.4v1.7
			c0.6-1.1,1.4-1.9,2.4-2.4c1-0.5,2.2-0.8,3.5-0.8c4.1,0,6.1,2.3,6.1,6.8V37c0,1-0.5,1.5-1.4,1.5c-1,0-1.4-0.5-1.4-1.5v-9.3
			c0-1.6-0.3-2.8-0.9-3.5c-0.6-0.7-1.6-1.1-3-1.1c-1.6,0-2.8,0.5-3.8,1.5c-0.9,1-1.4,2.3-1.4,3.9V37C95.2,38,94.7,38.5,93.7,38.5z"
			/>
		<path class="st3" d="M116,44.9c-0.5,0-0.9-0.2-1.1-0.6c-0.2-0.4-0.2-0.9,0-1.4l2.2-4.9l-6.5-15.1c-0.2-0.5-0.2-1,0-1.4
			c0.2-0.4,0.7-0.6,1.3-0.6c0.7,0,1.1,0.4,1.4,1.1l5.3,13l5.4-13c0.2-0.4,0.4-0.7,0.6-0.9c0.2-0.2,0.5-0.2,0.9-0.2
			c0.5,0,0.9,0.2,1.1,0.6c0.2,0.4,0.2,0.9,0,1.4l-9,20.9c-0.2,0.4-0.4,0.7-0.6,0.9C116.7,44.8,116.4,44.9,116,44.9z"/>
		<path class="st3" d="M132.6,38.5c-1.5,0-2.3-0.8-2.3-2.3V15.5c0-1.6,0.8-2.3,2.3-2.3c1.5,0,2.3,0.8,2.3,2.3v8.3h12.8v-8.3
			c0-1.6,0.8-2.3,2.3-2.3c1.5,0,2.3,0.8,2.3,2.3v20.8c0,1.6-0.8,2.3-2.3,2.3c-1.5,0-2.3-0.8-2.3-2.3v-8.7h-12.8v8.7
			C134.8,37.8,134.1,38.5,132.6,38.5z"/>
		<path class="st3" d="M165,38.6c-1.8,0-3.3-0.4-4.7-1.1c-1.3-0.7-2.3-1.8-3.1-3.1c-0.7-1.4-1.1-2.9-1.1-4.8c0-1.8,0.4-3.4,1.1-4.8
			c0.7-1.3,1.8-2.4,3.1-3.1c1.3-0.7,2.9-1.1,4.7-1.1c1.8,0,3.3,0.4,4.7,1.1c1.3,0.7,2.3,1.8,3.1,3.1c0.7,1.3,1.1,2.9,1.1,4.8
			c0,1.8-0.4,3.4-1.1,4.8c-0.7,1.4-1.8,2.4-3.1,3.1C168.4,38.3,166.8,38.6,165,38.6z M165,35.3c1.3,0,2.4-0.5,3.2-1.4
			c0.8-1,1.2-2.4,1.2-4.2c0-1.9-0.4-3.3-1.2-4.2c-0.8-0.9-1.9-1.4-3.2-1.4c-1.3,0-2.4,0.5-3.2,1.4c-0.8,0.9-1.2,2.3-1.2,4.2
			c0,1.9,0.4,3.3,1.2,4.2C162.6,34.8,163.7,35.3,165,35.3z"/>
		<path class="st3" d="M179.7,38.5c-1.5,0-2.2-0.8-2.2-2.3V23c0-1.5,0.7-2.2,2.2-2.2c1.4,0,2.2,0.7,2.2,2.2v0.7
			c0.5-0.9,1.2-1.7,2.2-2.2c0.9-0.5,2-0.8,3.2-0.8c2.6,0,4.3,1.1,5.1,3.4c0.5-1.1,1.3-1.9,2.3-2.5c1-0.6,2.2-0.9,3.5-0.9
			c3.9,0,5.8,2.4,5.8,7.1v8.5c0,1.5-0.7,2.3-2.2,2.3c-1.5,0-2.2-0.8-2.2-2.3v-8.4c0-1.3-0.2-2.3-0.7-2.9c-0.4-0.6-1.2-0.9-2.2-0.9
			c-1.2,0-2.1,0.4-2.7,1.2c-0.7,0.8-1,1.9-1,3.4v7.6c0,1.5-0.7,2.3-2.2,2.3c-1.5,0-2.2-0.8-2.2-2.3v-8.4c0-1.3-0.2-2.3-0.7-2.9
			c-0.4-0.6-1.2-0.9-2.2-0.9c-1.2,0-2.1,0.4-2.7,1.2c-0.7,0.8-1,1.9-1,3.4v7.6C181.9,37.8,181.2,38.5,179.7,38.5z"/>
		<path class="st3" d="M216.9,38.6c-2,0-3.6-0.4-5-1.1s-2.5-1.8-3.3-3.1c-0.8-1.3-1.1-2.9-1.1-4.8c0-1.8,0.4-3.3,1.1-4.7
			c0.7-1.3,1.8-2.4,3.1-3.2c1.3-0.8,2.8-1.1,4.5-1.1c2.4,0,4.4,0.8,5.8,2.3s2.1,3.7,2.1,6.3c0,0.9-0.6,1.3-1.7,1.3h-10.6
			c0.3,3.1,2.1,4.6,5.3,4.6c0.6,0,1.3-0.1,2.1-0.2c0.8-0.2,1.5-0.4,2.2-0.8c0.6-0.4,1.1-0.5,1.6-0.3c0.4,0.1,0.7,0.4,0.9,0.8
			c0.2,0.4,0.2,0.8,0.1,1.3c-0.1,0.5-0.5,0.9-1,1.2c-0.8,0.5-1.8,0.9-2.8,1.1C218.8,38.5,217.8,38.6,216.9,38.6z M216.2,23.7
			c-1.3,0-2.3,0.4-3.1,1.2c-0.8,0.8-1.3,1.9-1.4,3.2h8.7c-0.1-1.4-0.5-2.5-1.2-3.3C218.5,24,217.5,23.7,216.2,23.7z"/>
		<g>
			<polygon class="st1" points="86.5,15.9 88.1,16.8 86.5,17.7 85.6,19.4 84.7,17.7 83,16.8 84.7,15.9 85.6,14.2 			"/>
		</g>
	</g>
</g>
</svg>
